<svg width="24" height="24" viewBox="0 0 24 24" fill="none" xmlns="http://www.w3.org/2000/svg">
<path d="M4.31992 1.92004C3.00015 1.92004 1.91992 3.00028 1.91992 4.32004V19.68C1.91992 20.9998 3.00015 22.08 4.31992 22.08H19.6799C20.9997 22.08 22.0799 20.9998 22.0799 19.68V4.32004C22.0799 3.00028 20.9997 1.92004 19.6799 1.92004H4.31992ZM4.31992 2.88004H7.47836C5.76424 4.66357 4.79992 6.96872 4.79992 9.36004C4.79992 11.8368 5.8128 14.208 7.6368 16.0032C7.6944 16.104 7.74228 16.5982 7.52148 17.1694C7.38228 17.5294 7.10377 17.9996 6.56617 18.1772C6.35977 18.2444 6.22552 18.4469 6.23992 18.6629C6.25432 18.8789 6.4131 19.0612 6.6243 19.1044C8.0019 19.378 8.89398 18.9649 9.61398 18.6385C10.262 18.3409 10.6898 18.1391 11.3474 18.4079C12.6914 18.9311 14.1215 19.2 15.5999 19.2C17.5649 19.2 19.455 18.7204 21.1199 17.8144V19.68C21.1199 20.4809 20.4808 21.12 19.6799 21.12H4.31992C3.51905 21.12 2.87992 20.4809 2.87992 19.68V4.32004C2.87992 3.51917 3.51905 2.88004 4.31992 2.88004ZM15.8399 7.20004C16.1039 7.20004 16.3199 7.41604 16.3199 7.68004V12C16.3199 12.264 16.1039 12.48 15.8399 12.48C15.5759 12.48 15.3599 12.264 15.3599 12V7.68004C15.3599 7.41604 15.5759 7.20004 15.8399 7.20004ZM8.63992 7.68004H11.0399C11.2127 7.68004 11.3763 7.77582 11.4627 7.92942C11.5443 8.07822 11.5389 8.26531 11.4477 8.41411L9.5043 11.52H11.0399C11.3039 11.52 11.5199 11.736 11.5199 12C11.5199 12.264 11.3039 12.48 11.0399 12.48H8.63992C8.46712 12.48 8.30351 12.3843 8.21711 12.2307C8.13551 12.0819 8.14091 11.8948 8.23211 11.746L10.1755 8.64004H8.63992C8.37592 8.64004 8.15992 8.42404 8.15992 8.16004C8.15992 7.89604 8.37592 7.68004 8.63992 7.68004ZM13.1999 9.12004C13.4927 9.12004 13.7661 9.20127 14.0109 9.33567C14.0973 9.21087 14.2319 9.12004 14.3999 9.12004C14.6639 9.12004 14.8799 9.33604 14.8799 9.60004V12C14.8799 12.264 14.6639 12.48 14.3999 12.48C14.2319 12.48 14.0973 12.3892 14.0109 12.2644C13.7661 12.3988 13.4927 12.48 13.1999 12.48C12.2735 12.48 11.5199 11.7264 11.5199 10.8C11.5199 9.87364 12.2735 9.12004 13.1999 9.12004ZM18.4799 9.12004C19.4063 9.12004 20.1599 9.87364 20.1599 10.8C20.1599 11.7264 19.4063 12.48 18.4799 12.48C17.5535 12.48 16.7999 11.7264 16.7999 10.8C16.7999 9.87364 17.5535 9.12004 18.4799 9.12004ZM13.1999 10.08C13.1501 10.08 13.1015 10.0855 13.0546 10.095C12.9608 10.1142 12.8734 10.1512 12.7968 10.2029C12.7202 10.2545 12.6544 10.3203 12.6027 10.3969C12.551 10.4735 12.5141 10.5609 12.4949 10.6547C12.4853 10.7017 12.4799 10.7502 12.4799 10.8C12.4799 10.8498 12.4853 10.8984 12.4949 10.9454C12.5045 10.9923 12.518 11.0373 12.5362 11.0804C12.5544 11.1234 12.5769 11.1649 12.6027 11.2032C12.6286 11.2415 12.6583 11.2766 12.6909 11.3091C12.7234 11.3417 12.7585 11.3714 12.7968 11.3972C12.8734 11.4489 12.9608 11.4859 13.0546 11.505C13.1015 11.5146 13.1501 11.52 13.1999 11.52C13.2497 11.52 13.2983 11.5146 13.3452 11.505C13.6737 11.438 13.9199 11.1486 13.9199 10.8C13.9199 10.4016 13.5983 10.08 13.1999 10.08ZM18.4799 10.08C18.4301 10.08 18.3815 10.0855 18.3346 10.095C18.2877 10.1046 18.2427 10.1181 18.1996 10.1363C18.1565 10.1545 18.1151 10.177 18.0768 10.2029C18.0385 10.2287 18.0034 10.2584 17.9709 10.291C17.9058 10.3561 17.8525 10.4336 17.8162 10.5197C17.798 10.5628 17.7845 10.6078 17.7749 10.6547C17.7653 10.7017 17.7599 10.7502 17.7599 10.8C17.7599 10.8498 17.7653 10.8984 17.7749 10.9454C17.7845 10.9923 17.798 11.0373 17.8162 11.0804C17.8344 11.1234 17.8569 11.1649 17.8827 11.2032C17.9086 11.2415 17.9383 11.2766 17.9709 11.3091C18.0034 11.3417 18.0385 11.3714 18.0768 11.3972C18.1151 11.4231 18.1565 11.4456 18.1996 11.4638C18.2427 11.482 18.2877 11.4955 18.3346 11.505C18.3815 11.5146 18.4301 11.52 18.4799 11.52C18.5297 11.52 18.5783 11.5146 18.6252 11.505C18.9537 11.438 19.1999 11.1486 19.1999 10.8C19.1999 10.4016 18.8783 10.08 18.4799 10.08Z" fill="white"/>
</svg>
